<?xml version="1.0" encoding="UTF-8"?><svg width="24px" height="24px" viewBox="0 0 24 24" stroke-width="1.5" fill="none" xmlns="http://www.w3.org/2000/svg" color="#000000"><path d="M12 22C6.477 22 2 17.523 2 12S6.477 2 12 2s10 4.477 10 10-4.477 10-10 10z" stroke="#000000" stroke-width="1.5" stroke-linecap="round" stroke-linejoin="round"></path><path d="M12 16a4 4 0 110-8 4 4 0 010 8zM12 2v6M12 16v6M2 12h6M16 12h6M4.929 4.929L9.172 9.17M14.828 14.829l4.243 4.242M4.929 19.071l4.243-4.242M14.828 9.171l4.243-4.242" stroke="#000000" stroke-width="1.5" stroke-linecap="round" stroke-linejoin="round"></path></svg>